<svg width="40" height="32" viewBox="0 0 40 32" fill="none" xmlns="http://www.w3.org/2000/svg">
<path d="M32.5871 4H15.4128C14.2202 4 13.2661 4.83582 12.9083 5.91045L11 13.6716V13.791C11 15.4627 12.4312 16.7761 14.3394 16.7761C15.8899 16.7761 17.2018 15.8209 17.5596 14.5075C17.9174 15.8209 19.2294 16.7761 20.7798 16.7761C22.3303 16.7761 23.6422 15.8209 24 14.5075C24.3578 15.8209 25.6697 16.7761 27.2202 16.7761C28.7706 16.7761 30.0826 15.8209 30.4404 14.5075C30.7981 15.8209 32.1101 16.7761 33.6605 16.7761C35.4495 16.7761 37 15.4627 37 13.791V13.6716L35.0917 5.91045C34.8532 4.71642 33.7798 4 32.5871 4Z" fill="#EDC39B"/>
<path d="M33.6606 19C32.2294 19 31.0368 18.1642 30.5597 17.0896C30.5597 16.9701 30.3212 16.9701 30.3212 17.0896C29.8441 18.1642 28.6514 19 27.2202 19C25.789 19 24.5964 18.1642 24.1193 17.0896C24.1193 16.9701 23.8808 16.9701 23.8808 17.0896C23.4037 18.1642 22.2111 19 20.7799 19C19.3487 19 18.156 18.1642 17.679 17.0896C17.679 16.9701 17.4404 16.9701 17.4404 17.0896C16.9634 18.1642 15.7707 19 14.3395 19C13.7432 19 13.2661 18.8806 12.7891 18.6418V26.7612C12.7891 27.597 13.5047 28.3134 14.3395 28.3134H25.789V22.3433H30.3212V28.3134H33.3028C34.1377 28.3134 34.8533 27.597 34.8533 26.7612V18.7612C34.3762 18.8806 34.0184 19 33.6606 19Z" fill="#EDC39B"/>
<path d="M9.04995 19.4369C9.01516 19.3448 8.95295 19.2656 8.87173 19.2099C8.7905 19.1542 8.69416 19.1248 8.59568 19.1255H5.34198C5.26276 19.1244 5.18449 19.1428 5.1141 19.1792C5.04371 19.2155 4.98338 19.2687 4.93845 19.3339C4.89352 19.3992 4.86538 19.4745 4.85653 19.5532C4.84768 19.632 4.85839 19.7117 4.88771 19.7853L8.9119 30.28C8.9467 30.3721 9.0089 30.4513 9.09012 30.507C9.17135 30.5627 9.26769 30.5921 9.36617 30.5914H12.6167C12.6957 30.5924 12.7737 30.574 12.8439 30.5377C12.9142 30.5014 12.9744 30.4484 13.0192 30.3834C13.0641 30.3184 13.0923 30.2433 13.1013 30.1648C13.1104 30.0863 13.0999 30.0068 13.0709 29.9332L9.04995 19.4369Z" fill="url(#paint0_linear)"/>
<path d="M4.76713 19.4884C4.79368 19.384 4.85444 19.2916 4.93969 19.2258C5.02495 19.1601 5.12978 19.1248 5.23745 19.1256H8.52326C8.59797 19.1246 8.67189 19.1411 8.73916 19.1736C8.80642 19.2061 8.8652 19.2539 8.91082 19.3131C8.95645 19.3722 8.98768 19.4412 9.00204 19.5145C9.01641 19.5879 9.01351 19.6635 8.99357 19.7356L6.2439 30.2286C6.21734 30.333 6.15658 30.4254 6.07133 30.4912C5.98607 30.5569 5.88124 30.5922 5.77358 30.5914H2.48777C2.41305 30.5924 2.33913 30.5759 2.27187 30.5434C2.2046 30.5109 2.14583 30.4631 2.1002 30.4039C2.05457 30.3448 2.02334 30.2758 2.00898 30.2025C1.99462 30.1291 1.99752 30.0535 2.01745 29.9814L4.76713 19.4884Z" fill="#924BCA"/>
<path d="M11.7625 19.3628C11.789 19.2585 11.8498 19.166 11.935 19.1003C12.0203 19.0345 12.1251 18.9992 12.2328 19H15.5122C15.5869 18.9991 15.6608 19.0155 15.7281 19.0481C15.7953 19.0806 15.8541 19.1283 15.8997 19.1875C15.9454 19.2467 15.9766 19.3157 15.991 19.389C16.0053 19.4623 16.0024 19.538 15.9825 19.61L13.2328 30.1031C13.2063 30.2074 13.1455 30.2999 13.0602 30.3656C12.975 30.4314 12.8702 30.4667 12.7625 30.4659H9.47507C9.40035 30.4668 9.32644 30.4504 9.25917 30.4179C9.1919 30.3853 9.13313 30.3376 9.0875 30.2784C9.04188 30.2192 9.01065 30.1502 8.99628 30.0769C8.98192 30.0036 8.98482 29.9279 9.00475 29.8559L11.7625 19.3628Z" fill="#924BCA"/>
<path fill-rule="evenodd" clip-rule="evenodd" d="M13.7471 28.1893L15.9953 19.61C16.0152 19.538 16.0181 19.4623 16.0038 19.389C15.9894 19.3157 15.9582 19.2467 15.9126 19.1875C15.8669 19.1283 15.8082 19.0806 15.7409 19.0481C15.6736 19.0155 15.5997 18.9991 15.525 19H12.7891V26.7612C12.7891 27.3888 13.1926 27.9491 13.7471 28.1893Z" fill="#572D82"/>
<defs>
<linearGradient id="paint0_linear" x1="8.37096" y1="19.1159" x2="11.0001" y2="30.5" gradientUnits="userSpaceOnUse">
<stop offset="0.378422" stop-color="#8439BF"/>
<stop offset="0.921875" stop-color="#924BCA" stop-opacity="0"/>
</linearGradient>
</defs>
</svg>
