<svg width="40" height="32" viewBox="0 0 40 32" fill="none" xmlns="http://www.w3.org/2000/svg">
<path d="M37.3334 10.6667H25.3334C24.9798 10.6667 24.6407 10.8071 24.3906 11.0572C24.1406 11.3072 24.0001 11.6464 24.0001 12V20C24.0001 20.3536 24.1406 20.6928 24.3906 20.9428C24.6407 21.1929 24.9798 21.3333 25.3334 21.3333H37.3334V26.6667C37.3334 27.0203 37.1929 27.3594 36.9429 27.6095C36.6928 27.8595 36.3537 28 36.0001 28H12.0001C11.6465 28 11.3073 27.8595 11.0573 27.6095C10.8072 27.3594 10.6667 27.0203 10.6667 26.6667V5.33333C10.6667 4.97971 10.8072 4.64057 11.0573 4.39052C11.3073 4.14048 11.6465 4 12.0001 4H36.0001C36.3537 4 36.6928 4.14048 36.9429 4.39052C37.1929 4.64057 37.3334 4.97971 37.3334 5.33333V10.6667ZM26.6667 14.3333C26.6667 13.781 27.1145 13.3333 27.6667 13.3333H37.3334V18.6667H27.6667C27.1145 18.6667 26.6667 18.219 26.6667 17.6667V14.3333Z" fill="#EDC39B"/>
<path d="M15.8333 20.3333H16.6667C16.8877 20.3333 17.0996 20.4211 17.2559 20.5774C17.4122 20.7337 17.5 20.9456 17.5 21.1667V29.5C17.5 29.721 17.4122 29.933 17.2559 30.0892C17.0996 30.2455 16.8877 30.3333 16.6667 30.3333H3.33333C3.11232 30.3333 2.90036 30.2455 2.74408 30.0892C2.5878 29.933 2.5 29.721 2.5 29.5V21.1667C2.5 20.9456 2.5878 20.7337 2.74408 20.5774C2.90036 20.4211 3.11232 20.3333 3.33333 20.3333H4.16667V19.5C4.16667 18.7339 4.31755 17.9754 4.6107 17.2677C4.90385 16.5599 5.33354 15.9169 5.87521 15.3752C6.41689 14.8335 7.05995 14.4038 7.76768 14.1107C8.47541 13.8175 9.23396 13.6667 10 13.6667C10.766 13.6667 11.5246 13.8175 12.2323 14.1107C12.9401 14.4038 13.5831 14.8335 14.1248 15.3752C14.6665 15.9169 15.0961 16.5599 15.3893 17.2677C15.6825 17.9754 15.8333 18.7339 15.8333 19.5V20.3333ZM14.1667 20.3333V19.5C14.1667 18.3949 13.7277 17.3351 12.9463 16.5537C12.1649 15.7723 11.1051 15.3333 10 15.3333C8.89493 15.3333 7.83512 15.7723 7.05372 16.5537C6.27232 17.3351 5.83333 18.3949 5.83333 19.5V20.3333H14.1667Z" fill="#924BCA"/>
<path fill-rule="evenodd" clip-rule="evenodd" d="M17.5001 28V21.1666C17.5001 20.9456 17.4123 20.7336 17.256 20.5774C17.0997 20.4211 16.8877 20.3333 16.6667 20.3333H15.8334V19.4999C15.8334 18.7339 15.6825 17.9754 15.3894 17.2676C15.0962 16.5599 14.6665 15.9168 14.1249 15.3752C13.5832 14.8335 12.9401 14.4038 12.2324 14.1106C11.7309 13.9029 11.2039 13.7666 10.6667 13.7048V15.3869C11.5247 15.526 12.3239 15.9312 12.9463 16.5537C13.7277 17.3351 14.1667 18.3949 14.1667 19.4999V20.3333H10.6667V26.6667C10.6667 27.0203 10.8072 27.3594 11.0573 27.6095C11.3073 27.8595 11.6465 28 12.0001 28H17.5001Z" fill="#572D82"/>
</svg>
