<svg width="217" height="194" viewBox="0 0 217 194" fill="none" xmlns="http://www.w3.org/2000/svg">
<path d="M1 1C51.4151 7 156.411 32.4 173.075 86" stroke="url(#paint0_linear)" stroke-width="2" stroke-dasharray="4 4"/>
<path d="M1 193C51.4151 187 156.411 161.6 173.075 108" stroke="url(#paint1_linear)" stroke-width="2" stroke-dasharray="4 4"/>
<path d="M114.024 78.2334H127.608V80.9214C125.752 80.9214 124.536 81.1454 123.96 81.5934C123.384 82.0094 123.096 82.8734 123.096 84.1854V105.689C123.096 107.001 123.4 107.913 124.008 108.425C124.648 108.905 125.848 109.145 127.608 109.145V111.833H119.304L99.192 88.0734V105.881C99.192 107.193 99.48 108.073 100.056 108.521C100.632 108.937 101.848 109.145 103.704 109.145V111.833H90.12V109.145C91.976 109.145 93.192 108.937 93.768 108.521C94.344 108.073 94.632 107.193 94.632 105.881V84.3774C94.632 83.0654 94.312 82.1694 93.672 81.6894C93.064 81.1774 91.88 80.9214 90.12 80.9214V78.2334H101.64L118.536 98.8254V84.1854C118.536 82.8734 118.248 82.0094 117.672 81.5934C117.096 81.1454 115.88 80.9214 114.024 80.9214V78.2334ZM134.323 111.833H150.931V109.145C149.139 109.145 147.971 108.937 147.427 108.521C146.883 108.073 146.611 107.193 146.611 105.881V96.8094C147.571 96.8094 148.259 96.8254 148.675 96.8574C150.275 96.9534 151.539 97.1294 152.467 97.3854C153.427 97.6414 154.147 98.0734 154.627 98.6814C155.107 99.2894 155.427 99.8974 155.587 100.505C155.747 101.081 155.875 101.929 155.971 103.049H158.275L158.323 87.5454H156.067C155.971 88.7934 155.827 89.7374 155.635 90.3774C155.475 90.9854 155.139 91.5934 154.627 92.2014C154.147 92.7774 153.427 93.1934 152.467 93.4494C151.539 93.6734 150.259 93.8174 148.627 93.8814H146.611V85.2414C146.611 84.2814 146.819 83.5934 147.235 83.1774C147.683 82.7294 148.547 82.5054 149.827 82.5054H157.075C158.131 82.5054 159.107 82.7454 160.003 83.2254C160.931 83.6734 161.651 84.1854 162.163 84.7614C162.675 85.3054 163.155 85.9934 163.603 86.8254C164.051 87.6254 164.323 88.1854 164.419 88.5054C164.547 88.8254 164.675 89.1774 164.803 89.5614L166.867 88.6974L162.787 77.3694L160.867 78.2334H134.323V80.9214C135.987 80.9214 137.123 81.1774 137.731 81.6894C138.339 82.2014 138.643 83.0974 138.643 84.3774V105.881C138.643 107.193 138.371 108.073 137.827 108.521C137.283 108.937 136.115 109.145 134.323 109.145V111.833ZM200.171 111.833H183.563V109.145C185.323 109.145 186.475 108.937 187.019 108.521C187.563 108.105 187.835 107.225 187.835 105.881V85.3374C187.835 83.6414 187.051 82.7934 185.483 82.7934H182.459C178.811 82.9854 176.043 85.2414 174.155 89.5614L172.187 88.6494L176.219 77.3694L178.139 78.2334H205.595L207.563 77.3694L211.547 88.5534L209.579 89.5614C207.627 85.2414 204.891 82.9854 201.371 82.7934H198.251C196.651 82.7934 195.851 83.6414 195.851 85.3374V105.881C195.851 107.193 196.123 108.073 196.667 108.521C197.243 108.937 198.411 109.145 200.171 109.145V111.833Z" fill="#6A5492"/>
<defs>
<linearGradient id="paint0_linear" x1="87.0377" y1="1" x2="87.0377" y2="86" gradientUnits="userSpaceOnUse">
<stop stop-color="#5F458E"/>
<stop offset="1" stop-color="#5F458E" stop-opacity="0"/>
</linearGradient>
<linearGradient id="paint1_linear" x1="87.0377" y1="193" x2="87.0377" y2="108" gradientUnits="userSpaceOnUse">
<stop stop-color="#5F458E"/>
<stop offset="1" stop-color="#5F458E" stop-opacity="0"/>
</linearGradient>
</defs>
</svg>
