<svg width="84" height="84" viewBox="0 0 84 84" fill="none" xmlns="http://www.w3.org/2000/svg"><g filter="url(#filter0_d)"><circle cx="38" cy="36" r="30" fill="url(#paint0_linear)"/></g><circle cx="38" cy="36" r="27" fill="#022754"/><path d="M38 34.5a7.5 7.5 0 0 1 7.5 7.5v9h-15v-9a7.5 7.5 0 0 1 7.5-7.5zm-10.068 4.509c-.239.805-.38 1.636-.42 2.475L27.5 42v9H23v-6.75a5.25 5.25 0 0 1 4.678-5.22l.255-.021h-.001zm20.136 0A5.251 5.251 0 0 1 53 44.25V51h-4.5v-9c0-1.04-.15-2.043-.432-2.991zM28.25 30a3.75 3.75 0 1 1 0 7.5 3.75 3.75 0 0 1 0-7.5zm19.5 0a3.75 3.75 0 1 1 0 7.5 3.75 3.75 0 0 1 0-7.5zM38 21a6 6 0 1 1 0 12 6 6 0 0 1 0-12z" fill="#fff"/><defs><linearGradient id="paint0_linear" x1="38" y1="6" x2="38" y2="66" gradientUnits="userSpaceOnUse"><stop offset=".024" stop-color="#FFEE59"/><stop offset=".245" stop-color="#71ED46"/><stop offset=".526" stop-color="#59C3FF"/><stop offset=".799" stop-color="#3431DC"/><stop offset="1" stop-color="#FF09C9"/></linearGradient><filter id="filter0_d" x="0" y="0" width="84" height="84" filterUnits="userSpaceOnUse" color-interpolation-filters="sRGB"><feFlood flood-opacity="0" result="BackgroundImageFix"/><feColorMatrix in="SourceAlpha" values="0 0 0 0 0 0 0 0 0 0 0 0 0 0 0 0 0 0 127 0" result="hardAlpha"/><feOffset dx="4" dy="6"/><feGaussianBlur stdDeviation="6"/><feComposite in2="hardAlpha" operator="out"/><feColorMatrix values="0 0 0 0 0.0177604 0 0 0 0 0.080025 0 0 0 0 0.1375 0 0 0 0.5 0"/><feBlend in2="BackgroundImageFix" result="effect1_dropShadow"/><feBlend in="SourceGraphic" in2="effect1_dropShadow" result="shape"/></filter></defs></svg>