<svg width="84" height="84" viewBox="0 0 84 84" fill="none" xmlns="http://www.w3.org/2000/svg"><g filter="url(#filter0_d)"><circle cx="38" cy="36" r="30" fill="url(#paint0_linear)"/></g><circle cx="38" cy="36" r="27" fill="#022754"/><path d="M33.995 35.25h3.255A6.75 6.75 0 0 1 44 42H33.498l.002 1.5h12V42a8.367 8.367 0 0 0-1.329-4.5H48.5a7.501 7.501 0 0 1 6.774 4.277C51.727 46.458 45.983 49.5 39.5 49.5c-4.142 0-7.65-.885-10.5-2.437V33.107a10.452 10.452 0 0 1 4.995 2.143zM27.5 46.5A1.5 1.5 0 0 1 26 48h-3a1.5 1.5 0 0 1-1.5-1.5V33a1.5 1.5 0 0 1 1.5-1.5h3a1.5 1.5 0 0 1 1.5 1.5v13.5zm19.5-21a4.5 4.5 0 1 1 0 9 4.5 4.5 0 0 1 0-9zM36.5 21a4.5 4.5 0 1 1 0 9 4.5 4.5 0 0 1 0-9z" fill="#fff"/><defs><linearGradient id="paint0_linear" x1="38" y1="6" x2="38" y2="66" gradientUnits="userSpaceOnUse"><stop offset=".024" stop-color="#FFEE59"/><stop offset=".245" stop-color="#71ED46"/><stop offset=".526" stop-color="#59C3FF"/><stop offset=".799" stop-color="#3431DC"/><stop offset="1" stop-color="#FF09C9"/></linearGradient><filter id="filter0_d" x="0" y="0" width="84" height="84" filterUnits="userSpaceOnUse" color-interpolation-filters="sRGB"><feFlood flood-opacity="0" result="BackgroundImageFix"/><feColorMatrix in="SourceAlpha" values="0 0 0 0 0 0 0 0 0 0 0 0 0 0 0 0 0 0 127 0" result="hardAlpha"/><feOffset dx="4" dy="6"/><feGaussianBlur stdDeviation="6"/><feComposite in2="hardAlpha" operator="out"/><feColorMatrix values="0 0 0 0 0.0177604 0 0 0 0 0.080025 0 0 0 0 0.1375 0 0 0 0.5 0"/><feBlend in2="BackgroundImageFix" result="effect1_dropShadow"/><feBlend in="SourceGraphic" in2="effect1_dropShadow" result="shape"/></filter></defs></svg>